# xmcd CD database file
#
# Track frame offsets:
#	150
#	20857
#	39380
#	68700
#	98417
#	111350
#	139732
#	162942
#	181807
#	205830
#	211620
#	237825
#	258337
#	280725
#	309295
#
# Disc length: 4348 seconds
#
# Revision: 0
# Processed by: cddbd v1.5.1PL0 Copyright (c) Steve Scherf et al.
# Submitted via: CDex 1.51
#
DISCID=c510fa0f
DTITLE=Yngwie J. Malmsteens Rising Force - Dreaming...
DYEAR=1988
DGENRE=Heavy Metal
TTITLE0=Rising Force
TTITLE1=Liar
TTITLE2=You Don't Remember, I'll Never Forget-Street Of Dreams
TTITLE3=Crystal Ball
TTITLE4=Icarus' Dream Suite Opus 4
TTITLE5=Far Beyond The Sun
TTITLE6=Heaven Tonight
TTITLE7=Now Is The Time
TTITLE8=I'll See The Light, Tonight
TTITLE9=Acoustic Solo
TTITLE10=Dreaming (Tell Me)
TTITLE11=Guitar Solo
TTITLE12=Beethoven Symphony No. 5 Op 67
TTITLE13=Faster Than The Speed Of Light
TTITLE14=Purple Haze
EXTD=YEAR: 1988
EXTT0=
EXTT1=
EXTT2=
EXTT3=
EXTT4=
EXTT5=
EXTT6=
EXTT7=
EXTT8=
EXTT9=
EXTT10=
EXTT11=
EXTT12=
EXTT13=
EXTT14=
PLAYORDER=
